<?xml version="1.0" encoding="utf-8"?>
<!-- Generator: Adobe Illustrator 19.0.0, SVG Export Plug-In . SVG Version: 6.00 Build 0)  -->
<svg version="1.0" id="Layer_1" xmlns="http://www.w3.org/2000/svg" xmlns:xlink="http://www.w3.org/1999/xlink" x="0px" y="0px"
	 viewBox="0 0 450 450" style="enable-background:new 0 0 450 450;" xml:space="preserve">
<style type="text/css">
	.st0{fill:#BBBBBB;}
	.st1{fill:#E3E3E3;}
	.st2{fill:#FFFFFF;}
	.st3{fill:#5F6062;}
	.st4{fill:#A3A3A3;}
</style>
<path id="XMLID_33_" class="st0" d="M226.1,413.7c-104.7,0-189.8-85.2-189.8-189.8S121.4,34,226.1,34
	c104.7,0,189.8,85.2,189.8,189.8S330.8,413.7,226.1,413.7z M226.1,35.4c-103.9,0-188.4,84.5-188.4,188.4s84.5,188.4,188.4,188.4
	s188.4-84.5,188.4-188.4S330,35.4,226.1,35.4z"/>
<path id="XMLID_17_" class="st1" d="M226.5,347.9c-69.4,0-125.9-56.5-125.9-125.9S157,96,226.5,96S352.4,152.5,352.4,222
	S295.9,347.9,226.5,347.9z M226,117.3c-58.3,0-105.7,47.4-105.7,105.7S167.7,328.8,226,328.8s105.7-47.4,105.7-105.7
	S284.3,117.3,226,117.3z"/>
<polygon id="XMLID_23_" class="st2" points="98.1,210.7 159.8,258.2 83.6,283.2 "/>
<circle id="XMLID_27_" class="st3" cx="195.3" cy="189.9" r="23.6"/>
<path id="XMLID_26_" class="st3" d="M156.4,260.9c0-24.6,17.4-44.6,38.8-44.6s38.8,20,38.8,44.6"/>
<circle id="XMLID_29_" class="st3" cx="257.7" cy="189.7" r="23.6"/>
<path id="XMLID_28_" class="st3" d="M218.8,260.7c0-24.6,17.4-44.6,38.8-44.6c21.5,0,38.8,20,38.8,44.6"/>
<circle id="XMLID_12_" class="st4" cx="226" cy="187.3" r="31.8"/>
<path id="XMLID_20_" class="st4" d="M173.6,283.2c0-33.2,23.5-60.1,52.4-60.1s52.4,26.9,52.4,60.1"/>
<polygon id="XMLID_21_" class="st1" points="100.5,293.3 158.3,272.5 111.5,233.2 "/>
<polygon id="XMLID_24_" class="st2" points="292.1,183 368.6,155.5 354,235.2 "/>
<polygon id="XMLID_22_" class="st1" points="357.5,155.3 303.2,174.8 347.2,211.8 "/>
</svg>
