<?xml version="1.0" encoding="utf-8"?>
<!-- Generator: Adobe Illustrator 19.0.0, SVG Export Plug-In . SVG Version: 6.00 Build 0)  -->
<svg version="1.0" id="Layer_1" xmlns="http://www.w3.org/2000/svg" xmlns:xlink="http://www.w3.org/1999/xlink" x="0px" y="0px"
	 viewBox="0 0 450 450" style="enable-background:new 0 0 450 450;" xml:space="preserve">
<style type="text/css">
	.st0{fill:#E3E3E3;}
	.st1{fill:#A3A3A3;}
	.st2{fill:#BBBBBB;}
	.st3{fill:#5F6062;}
</style>
<polygon id="XMLID_46_" class="st0" points="120.6,340.3 148.7,340.3 148.7,215 120.6,236.1 "/>
<path id="XMLID_45_" class="st0" d="M161.8,205.2v135.2h28V194.1c0-1.4,0-2.8,0-4.2l-3.2-3.5L161.8,205.2z"/>
<polygon id="XMLID_49_" class="st0" points="210.8,212.8 202.9,204.2 202.9,340.3 230.9,340.3 230.9,203.6 "/>
<path id="XMLID_35_" class="st1" d="M244,197.6v142.7h28V194.1c0-3.1,0-6.2-0.1-9.3L244,197.6z"/>
<path id="XMLID_51_" class="st0" d="M285.4,178.7c-0.2,5-0.3,10.2-0.3,15.5v146.2h28V194.1c0-9.8-0.3-19.1-1-27.7L285.4,178.7z"/>
<path id="XMLID_43_" class="st2" d="M224.5,416C119.5,416,34,330.6,34,225.5C34,120.5,119.5,35,224.5,35S415,120.5,415,225.5
	C415,330.6,329.5,416,224.5,416z M224.5,36.5c-104.2,0-189,84.8-189,189s84.8,189,189,189s189-84.8,189-189S328.7,36.5,224.5,36.5z"
	/>
<polygon id="XMLID_31_" class="st3" points="293.9,127.6 318.6,166.4 339.7,125.8 "/>
<polygon id="XMLID_349_" class="st3" points="119.1,221.1 114.7,215.3 187.4,160.5 212,187.4 315.3,140.2 318.4,146.8 210.2,196.3 
	186.5,170.4 "/>
</svg>
