<?xml version="1.0" encoding="utf-8"?>
<!-- Generator: Adobe Illustrator 19.0.0, SVG Export Plug-In . SVG Version: 6.00 Build 0)  -->
<svg version="1.0" id="Layer_1" xmlns="http://www.w3.org/2000/svg" xmlns:xlink="http://www.w3.org/1999/xlink" x="0px" y="0px"
	 viewBox="0 0 450 450" style="enable-background:new 0 0 450 450;" xml:space="preserve">
<style type="text/css">
	.st0{fill:#E3E3E3;}
	.st1{fill:#A3A3A3;}
	.st2{fill:#3B3B3B;}
	.st3{fill:#BBBBBB;}
</style>
<polygon id="XMLID_278_" class="st0" points="251.3,316.9 234.4,272.8 266.4,273.2 270,282.6 289.9,241.6 289.9,198.9 88.6,198.9 
	88.6,316.9 155.6,316.9 155.6,270.4 189.1,270.4 189.1,316.9 "/>
<polygon id="XMLID_284_" class="st0" points="293.1,191.7 91.8,191.7 180.3,144.3 377,144.3 "/>
<path id="XMLID_283_" class="st1" d="M90.4,198.9v31.6c0,9.1,7.4,16.5,16.5,16.5s16.5-7.4,16.5-16.5v-31.6H90.4z"/>
<path id="XMLID_282_" class="st1" d="M130.7,198.9v31.6c0,9.1,7.4,16.5,16.5,16.5c9.1,0,16.5-7.4,16.5-16.5v-31.6H130.7z"/>
<path id="XMLID_281_" class="st1" d="M171.3,198.9v31.6c0,9.1,7.4,16.5,16.5,16.5c9.1,0,16.5-7.4,16.5-16.5v-31.6H171.3z"/>
<path id="XMLID_280_" class="st1" d="M213,198.9v31.6c0,9.1,7.4,16.5,16.5,16.5s16.5-7.4,16.5-16.5v-31.6H213z"/>
<path id="XMLID_279_" class="st1" d="M255.4,198.9v31.6c0,9.1,7.4,16.5,16.5,16.5s16.5-7.4,16.5-16.5v-31.6H255.4z"/>
<g id="XMLID_274_">
	<polygon id="XMLID_275_" class="st2" points="260.8,325.5 242.5,277.6 262.3,277.7 270.9,302.1 314.6,212.4 337.3,212.4 
		282.8,325.5 	"/>
</g>
<path id="XMLID_299_" class="st3" d="M224.5,413.8c-103.1,0-187-83.9-187-187s83.9-187,187-187s187,83.9,187,187
	S327.6,413.8,224.5,413.8z M224.5,41.2c-102.3,0-185.6,83.2-185.6,185.6s83.2,185.6,185.6,185.6S410,329.1,410,226.8
	S326.8,41.2,224.5,41.2z"/>
</svg>
