<?xml version="1.0" encoding="utf-8"?>
<!-- Generator: Adobe Illustrator 19.0.0, SVG Export Plug-In . SVG Version: 6.00 Build 0)  -->
<svg version="1.0" id="Layer_1" xmlns="http://www.w3.org/2000/svg" xmlns:xlink="http://www.w3.org/1999/xlink" x="0px" y="0px"
	 viewBox="0 0 450 450" style="enable-background:new 0 0 450 450;" xml:space="preserve">
<style type="text/css">
	.st0{fill:#BBBBBB;}
	.st1{fill:#E3E3E3;}
	.st2{fill:#A3A3A3;}
	.st3{fill:#5F6062;}
</style>
<path id="XMLID_59_" class="st0" d="M223.8,419c-106.2,0-192.7-86.4-192.7-192.7c0-106.2,86.4-192.7,192.7-192.7
	c106.2,0,192.7,86.4,192.7,192.7C416.5,332.6,330.1,419,223.8,419z M223.8,35.1c-105.4,0-191.2,85.8-191.2,191.2
	c0,105.4,85.8,191.2,191.2,191.2S415,331.8,415,226.3C415,120.9,329.3,35.1,223.8,35.1z"/>
<path id="XMLID_16_" class="st1" d="M224.3,354.8c-70.5,0-127.8-57.3-127.8-127.8S153.9,99.2,224.3,99.2S352.1,156.5,352.1,227
	S294.8,354.8,224.3,354.8z M223.8,120.8c-59.2,0-107.3,48.1-107.3,107.3s48.1,107.3,107.3,107.3s107.3-48.1,107.3-107.3
	S283,120.8,223.8,120.8z"/>
<path id="XMLID_36_" class="st1" d="M223.8,318.4c-49.8,0-90.3-40.5-90.3-90.3s40.5-90.3,90.3-90.3s90.3,40.5,90.3,90.3
	S273.6,318.4,223.8,318.4z M223.8,156.7c-39.4,0-71.4,32-71.4,71.4s32,71.4,71.4,71.4s71.4-32,71.4-71.4S263.2,156.7,223.8,156.7z"
	/>
<path id="XMLID_44_" class="st2" d="M225.6,279.1c-29.1,0-52.7-23.7-52.7-52.7s23.7-52.7,52.7-52.7s52.7,23.7,52.7,52.7
	S254.7,279.1,225.6,279.1z M225.6,184.6c-23,0-41.7,18.7-41.7,41.7s18.7,41.7,41.7,41.7s41.7-18.7,41.7-41.7
	S248.6,184.6,225.6,184.6z"/>
<rect id="XMLID_350_" x="243.9" y="170.9" transform="matrix(0.6899 0.7239 -0.7239 0.6899 224.2364 -116.0607)" class="st3" width="7.4" height="65.6"/>
<ellipse id="XMLID_10_" class="st3" cx="223.8" cy="226.3" rx="12.1" ry="13.1"/>
<polygon id="XMLID_41_" class="st2" points="318.8,193.8 372.1,140.5 323.6,138.8 271.4,190.9 "/>
<polygon id="XMLID_40_" class="st3" points="322.4,135.8 269.1,189.1 267.3,140.5 319.4,88.4 "/>
</svg>
