<?xml version="1.0" encoding="utf-8"?>
<!-- Generator: Adobe Illustrator 19.0.0, SVG Export Plug-In . SVG Version: 6.00 Build 0)  -->
<svg version="1.0" id="Layer_1" xmlns="http://www.w3.org/2000/svg" xmlns:xlink="http://www.w3.org/1999/xlink" x="0px" y="0px"
	 viewBox="0 0 450 450" style="enable-background:new 0 0 450 450;" xml:space="preserve">
<style type="text/css">
	.st0{fill:#BBBBBB;}
	.st1{fill:#E3E3E3;}
	.st2{fill:#A3A3A3;}
	.st3{fill:#5F6062;}
	.st4{fill:#FFFFFF;}
</style>
<path id="XMLID_39_" class="st0" d="M224.9,415.7c-105.6,0-191.5-85.9-191.5-191.5c0-105.6,85.9-191.5,191.5-191.5
	c105.6,0,191.5,85.9,191.5,191.5C416.4,329.8,330.5,415.7,224.9,415.7z M224.9,34.1c-104.8,0-190.1,85.3-190.1,190.1
	s85.3,190.1,190.1,190.1S415,328.9,415,224.2S329.7,34.1,224.9,34.1z"/>
<rect id="XMLID_42_" x="104.7" y="160.9" class="st1" width="194.9" height="83.6"/>
<polygon id="XMLID_54_" class="st1" points="299.5,150.2 104.5,150.2 150.4,126.2 345.3,126.2 "/>
<rect id="XMLID_52_" x="104.7" y="258.4" class="st2" width="194.9" height="75.5"/>
<path id="XMLID_57_" class="st2" d="M282.7,180.2c0.1-0.2,0.1-0.5,0.1-0.8v-5.1c0-1.2-1-2.2-2.2-2.2h-3.5c-1.2,0-2.2,1-2.2,2.2v5.1
	c0,0.3,0.1,0.5,0.1,0.8c-5.2,1.1-9.2,5.8-9.2,11.4v40.3c0,6.4,5.3,11.7,11.7,11.7h2.6c6.4,0,11.7-5.3,11.7-11.7v-40.3
	C291.9,186,288,181.3,282.7,180.2z"/>
<path id="XMLID_58_" class="st2" d="M220.5,180.2c0.1-0.2,0.1-0.5,0.1-0.8v-5.1c0-1.2-1-2.2-2.2-2.2h-3.5c-1.2,0-2.2,1-2.2,2.2v5.1
	c0,0.3,0.1,0.5,0.1,0.8c-5.2,1.1-9.2,5.8-9.2,11.4v40.3c0,6.4,5.3,11.7,11.7,11.7h2.6c6.4,0,11.7-5.3,11.7-11.7v-40.3
	C229.7,186,225.7,181.3,220.5,180.2z"/>
<path id="XMLID_65_" class="st3" d="M189.4,180.2c0.1-0.2,0.1-0.5,0.1-0.8v-5.1c0-1.2-1-2.2-2.2-2.2h-3.5c-1.2,0-2.2,1-2.2,2.2v5.1
	c0,0.3,0.1,0.5,0.1,0.8c-5.2,1.1-9.2,5.8-9.2,11.4v40.3c0,6.4,5.3,11.7,11.7,11.7h2.6c6.4,0,11.7-5.3,11.7-11.7v-40.3
	C198.5,186,194.6,181.3,189.4,180.2z"/>
<path id="XMLID_66_" class="st3" d="M158.2,180.2c0.1-0.2,0.1-0.5,0.1-0.8v-5.1c0-1.2-1-2.2-2.2-2.2h-3.5c-1.2,0-2.2,1-2.2,2.2v5.1
	c0,0.3,0.1,0.5,0.1,0.8c-5.2,1.1-9.2,5.8-9.2,11.4v40.3c0,6.4,5.3,11.7,11.7,11.7h2.6c6.4,0,11.7-5.3,11.7-11.7v-40.3
	C167.4,186,163.5,181.3,158.2,180.2z"/>
<path id="XMLID_71_" class="st2" d="M127.1,177.8c0.1-0.2,0.1-0.5,0.1-0.8V172c0-1.2-1-2.2-2.2-2.2h-3.5c-1.2,0-2.2,1-2.2,2.2v5.1
	c0,0.3,0.1,0.5,0.1,0.8c-5.2,1.1-9.2,5.8-9.2,11.4v40.3c0,6.4,5.3,11.7,11.7,11.7h2.6c6.4,0,11.7-5.3,11.7-11.7v-40.3
	C136.3,183.6,132.4,178.9,127.1,177.8z"/>
<path id="XMLID_75_" class="st4" d="M241,283.8c0.1-0.2,0.1-0.4,0.1-0.6v-4c0-1-0.7-1.7-1.6-1.7h-2.6c-0.9,0-1.6,0.8-1.6,1.7v4
	c0,0.2,0,0.4,0.1,0.6c-3.9,0.9-6.9,4.6-6.9,9.1v32c0,5.1,4,9.3,8.8,9.3h2c4.8,0,8.8-4.2,8.8-9.3v-32
	C247.9,288.5,244.9,284.8,241,283.8z"/>
<path id="XMLID_76_" class="st4" d="M212.5,283.8c0.1-0.2,0.1-0.4,0.1-0.6v-4c0-1-0.7-1.7-1.6-1.7h-2.6c-0.9,0-1.6,0.8-1.6,1.7v4
	c0,0.2,0,0.4,0.1,0.6c-3.9,0.9-6.9,4.6-6.9,9.1v32c0,5.1,4,9.3,8.8,9.3h2c4.8,0,8.8-4.2,8.8-9.3v-32
	C219.4,288.5,216.5,284.8,212.5,283.8z"/>
<path id="XMLID_74_" class="st4" d="M184,283.8c0.1-0.2,0.1-0.4,0.1-0.6v-4c0-1-0.7-1.7-1.6-1.7h-2.6c-0.9,0-1.6,0.8-1.6,1.7v4
	c0,0.2,0,0.4,0.1,0.6c-3.9,0.9-6.9,4.6-6.9,9.1v32c0,5.1,4,9.3,8.8,9.3h2c4.8,0,8.8-4.2,8.8-9.3v-32C191,288.5,188,284.8,184,283.8z
	"/>
<path id="XMLID_72_" class="st4" d="M155.6,283.8c0.1-0.2,0.1-0.4,0.1-0.6v-4c0-1-0.7-1.7-1.6-1.7h-2.6c-0.9,0-1.6,0.8-1.6,1.7v4
	c0,0.2,0,0.4,0.1,0.6c-3.9,0.9-6.9,4.6-6.9,9.1v32c0,5.1,4,9.3,8.8,9.3h2c4.8,0,8.8-4.2,8.8-9.3v-32
	C162.5,288.5,159.5,284.8,155.6,283.8z"/>
<path id="XMLID_55_" class="st4" d="M127.1,283.8c0.1-0.2,0.1-0.4,0.1-0.6v-4c0-1-0.7-1.7-1.6-1.7h-2.6c-0.9,0-1.6,0.8-1.6,1.7v4
	c0,0.2,0,0.4,0.1,0.6c-3.9,0.9-6.9,4.6-6.9,9.1v32c0,5.1,4,9.3,8.8,9.3h2c4.8,0,8.8-4.2,8.8-9.3v-32
	C134,288.5,131,284.8,127.1,283.8z"/>
</svg>
