<?xml version="1.0" encoding="utf-8"?>
<!-- Generator: Adobe Illustrator 19.0.0, SVG Export Plug-In . SVG Version: 6.00 Build 0)  -->
<svg version="1.0" id="Layer_1" xmlns="http://www.w3.org/2000/svg" xmlns:xlink="http://www.w3.org/1999/xlink" x="0px" y="0px"
	 viewBox="0 0 450 450" style="enable-background:new 0 0 450 450;" xml:space="preserve">
<style type="text/css">
	.st0{fill:#A3A3A3;}
	.st1{fill:#E3E3E3;}
	.st2{fill:#5F6062;}
	.st3{fill:#BBBBBB;}
</style>
<polygon id="XMLID_440_" class="st0" points="213.4,230.3 120.4,230.3 161.2,140.1 252.2,140.1 "/>
<rect id="XMLID_413_" x="130.2" y="230.3" class="st1" width="192.9" height="77.3"/>
<polygon id="XMLID_506_" class="st1" points="242.1,230.3 335.1,230.3 294.3,140.1 203.3,140.1 "/>
<rect id="XMLID_572_" x="209.9" y="269" class="st2" width="33.5" height="39.1"/>
<path id="XMLID_384_" class="st3" d="M226.7,411.7c-103.4,0-187.6-84.1-187.6-187.6c0-103.4,84.1-187.6,187.6-187.6
	c103.4,0,187.6,84.1,187.6,187.6C414.2,327.5,330.1,411.7,226.7,411.7z M226.7,38C124,38,40.5,121.5,40.5,224.1
	c0,102.6,83.5,186.1,186.1,186.1s186.1-83.5,186.1-186.1C412.8,121.5,329.3,38,226.7,38z"/>
</svg>
